<?xml version="1.0" standalone="no"?>
<!DOCTYPE svg PUBLIC "-//W3C//DTD SVG 20010904//EN"
 "http://www.w3.org/TR/2001/REC-SVG-20010904/DTD/svg10.dtd">
<svg version="1.0" xmlns="http://www.w3.org/2000/svg"
 width="512.000000pt" height="512.000000pt" viewBox="0 0 512.000000 512.000000"
 preserveAspectRatio="xMidYMid meet">

<g transform="translate(0.000000,512.000000) scale(0.100000,-0.100000)"
fill="#000000" stroke="none">
<path d="M2125 4899 c-480 -46 -943 -245 -1310 -562 -176 -151 -289 -280 -420
-477 -433 -649 -514 -1458 -218 -2185 291 -718 935 -1251 1702 -1411 206 -42
506 -57 719 -33 1009 109 1845 870 2046 1862 38 187 49 326 44 535 -5 202 -11
230 -64 271 -70 55 -158 47 -218 -19 -41 -46 -39 -29 -37 -270 3 -206 -14
-358 -55 -530 -179 -727 -754 -1303 -1484 -1484 -780 -193 -1614 104 -2100
749 -601 798 -531 1923 166 2630 664 674 1669 807 2486 329 42 -25 91 -49 109
-54 105 -30 218 85 189 192 -15 54 -43 82 -136 138 -408 247 -938 366 -1419
319z"/>
<path d="M4906 4685 c-32 -11 -278 -252 -1168 -1142 l-1128 -1128 -437 437
c-241 240 -451 442 -466 448 -42 15 -83 12 -127 -10 -68 -35 -100 -107 -80
-182 10 -38 69 -101 508 -541 273 -274 514 -507 534 -518 42 -21 83 -24 125
-9 38 15 2421 2395 2439 2437 54 124 -72 255 -200 208z"/>
</g>
</svg>
