<?xml version="1.0" encoding="UTF-8"?> <svg xmlns="http://www.w3.org/2000/svg" id="logo" width="296" height="76" viewBox="0 0 296 76"><defs><style> .cls-1, .cls-2 { fill: #e12454; } .cls-1, .cls-3 { fill-rule: evenodd; } .cls-3 { fill: #ffffff; } </style></defs><path class="cls-1" d="M113,54.641c0.108,12.239-7.73,20.545-18.352,20.922-10.348.368-18.419-7.2-19.116-17.918C74.782,46.16,67.339,38.13,57.187,37.856c-10.386-.28-18.167,7.323-19.544,19.094C35.814,72.589,21.451,80.7,8.9,73.18,1.966,69.028-1.12,61.81.406,53.316c1.352-7.523,7.7-13.357,15.783-14.858,3.987-.74,8.192-1.327,11.762-3.087,7.275-3.586,9.543-10.444,10.417-18.147C39.3,9.055,43.638,3.268,51.735.92,59.495-1.33,66.4.458,71.3,6.909a23.524,23.524,0,0,1,4.3,10.738c1.753,13.445,6.713,19.033,20.117,20.538,7.593,0.852,13,4.36,16.027,11.349A23.614,23.614,0,0,1,113,54.641Z" transform="translate(-0.031)"></path><rect id="Rectangle_135_copy" data-name="Rectangle 135 copy" class="cls-2" x="9.969" y="10" width="16" height="16" rx="8" ry="8"></rect><path id="Axacus" class="cls-3" d="M94.674,55.376A4.684,4.684,0,0,1,92.483,56.8a7.82,7.82,0,0,1-2.457.7,3.343,3.343,0,0,0-.133,1.378,1.832,1.832,0,0,0,.266,1.013A68.165,68.165,0,0,1,97.4,59.36a67.954,67.954,0,0,1,7.172.531,2.482,2.482,0,0,0,.182-1.145,2.369,2.369,0,0,0-.249-1.312,7.936,7.936,0,0,1-1.045-.116q-0.747-.116-1.694-0.349a5.117,5.117,0,0,1-1.66-.714,1.336,1.336,0,0,1-.714-1.079,19,19,0,0,1,1.461-4.516q0.731-1.859,2.391-5.578a0.51,0.51,0,0,1,.465-0.332q2.323-.066,6.906-0.066,5.112,0,6.375.066a0.731,0.731,0,0,1,.465.266l1,2.391q1,2.391,1.992,4.914a20.359,20.359,0,0,1,1,2.789,1.449,1.449,0,0,1-.6,1.129,4.681,4.681,0,0,1-1.809.88,7.981,7.981,0,0,1-2.109.315q-0.266,0-.265,1.1a2.181,2.181,0,0,0,.265,1.361q0.631-.033,2.789-0.183t4.018-.249q1.858-.1,3.221-0.1,1.725,0,5.013.249t3.885,0.282a1.725,1.725,0,0,0,.15-1.112,3.364,3.364,0,0,0-.283-1.345,6.1,6.1,0,0,1-.929-0.083c-0.355-.055-0.83-0.16-1.428-0.315a4.435,4.435,0,0,1-1.693-.88,4.07,4.07,0,0,1-1.2-1.577q-0.266-.664-0.83-2.175T128.608,49.8L115,16.129a1.017,1.017,0,0,0-.532-0.315,2.623,2.623,0,0,0-.863-0.149,2.191,2.191,0,0,0-1.311.9,6.589,6.589,0,0,0-1.146,1.627L97,50.727a37.7,37.7,0,0,1-2.324,4.648h0Zm21.184-14.344V41.1a0.509,0.509,0,0,1-.066.2,0.192,0.192,0,0,1-.133.066q-2.059.133-5.313,0.133-3.519,0-5.512-.2c-0.088,0-.132-0.088-0.132-0.266l5.644-13.016Zm20.885-10.824a2.245,2.245,0,0,0-.249,1.179,2,2,0,0,0,.315,1.278,7.42,7.42,0,0,1,2.258.515,4.99,4.99,0,0,1,2.324,1.61q1.595,2.026,2.939,3.835t2.955,3.984q1.609,2.175,2.805,3.8-0.73.764-3.6,3.852t-4.765,4.914a7.983,7.983,0,0,1-2.789,1.644,8.572,8.572,0,0,1-2.789.614,2.449,2.449,0,0,0-.216,1.278,2.308,2.308,0,0,0,.216,1.179,65.135,65.135,0,0,1,8.434-.465,52.725,52.725,0,0,1,6.972.465,2.674,2.674,0,0,0,.183-1.278,1.94,1.94,0,0,0-.249-1.179q-0.4,0-1-.05t-1.528-.216a4.312,4.312,0,0,1-1.56-.565,1.14,1.14,0,0,1-.631-0.963,2.019,2.019,0,0,1,.5-1,17.578,17.578,0,0,1,1.345-1.561q0.879-.929,2.042-2.125t1.627-1.693L157,55.044a4.657,4.657,0,0,1,.664.93,1.283,1.283,0,0,1-1.129,1.1,6.737,6.737,0,0,1-2.059.365,2.232,2.232,0,0,0-.232,1.245,2.051,2.051,0,0,0,.232,1.212,71.251,71.251,0,0,1,8.434-.465q6.939,0.167,9.23.465a2.244,2.244,0,0,0,.249-1.179,2.01,2.01,0,0,0-.315-1.278,6.878,6.878,0,0,1-2.158-.531,5,5,0,0,1-2.291-1.66q-1.926-2.49-4.881-6.192t-4.549-5.761q5.013-5.744,7.637-8.5a7.319,7.319,0,0,1,5.511-2.125,2.447,2.447,0,0,0,.216-1.278,2.31,2.31,0,0,0-.216-1.179,61.375,61.375,0,0,1-8.035.465,52.623,52.623,0,0,1-6.972-.465,2.675,2.675,0,0,0-.183,1.278,1.924,1.924,0,0,0,.249,1.179q0.4,0,1,.05t1.527,0.216a4.333,4.333,0,0,1,1.561.565,1.142,1.142,0,0,1,.631.963q0,0.565-5.114,6.043l-4.25-5.445a4.591,4.591,0,0,1-.664-0.93,1.284,1.284,0,0,1,1.129-1.1,6.753,6.753,0,0,1,2.059-.365,2.232,2.232,0,0,0,.232-1.245,2.051,2.051,0,0,0-.232-1.212,70.506,70.506,0,0,1-8.367.465q-6.84-.166-9.164-0.465h0Zm48.211,24.222a3.865,3.865,0,0,1-1.3-3.038,4.751,4.751,0,0,1,2.39-4.449,22.719,22.719,0,0,1,2.491-1.262q1.692-.763,1.892-0.863v9.3a1.4,1.4,0,0,1-.8.88,3.471,3.471,0,0,1-1.926.515A4.149,4.149,0,0,1,184.954,54.429Zm-3.437-22.694a21.655,21.655,0,0,0-5.1,3.188,5.818,5.818,0,0,0-.929,2.723,2.916,2.916,0,0,0,1.029,2.274,3.533,3.533,0,0,0,2.424.913,3.408,3.408,0,0,0,3.719-2.922q0.231-1.1.415-1.743t0.5-1.477a4.677,4.677,0,0,1,.68-1.278,3.126,3.126,0,0,1,.947-0.764,2.7,2.7,0,0,1,1.311-.316,3.242,3.242,0,0,1,2.806,2.025,9.435,9.435,0,0,1,1.112,4.615v3.121L186.5,43.622q-2.74,1.063-5,1.909t-3.353,1.212a4.716,4.716,0,0,0-2.407,1.942,5.782,5.782,0,0,0-1.046,3.37,7.723,7.723,0,0,0,2.523,5.595,8.426,8.426,0,0,0,6.176,2.507A9.49,9.49,0,0,0,187.51,58.8,20.314,20.314,0,0,0,190.9,56.7a4.952,4.952,0,0,0,1.959,2.291,5.377,5.377,0,0,0,3.088,1.029,6.764,6.764,0,0,0,2.822-.73,13.236,13.236,0,0,0,2.441-1.411q0.879-.68,1.577-1.312a1.86,1.86,0,0,0,.265-1,1.147,1.147,0,0,0-.465-1.129l-0.265.133a4.376,4.376,0,0,0-.465.266q-0.2.067-.531,0.166a2.306,2.306,0,0,1-.664.1,1.323,1.323,0,0,1-1.146-.714,3.777,3.777,0,0,1-.448-2.009V39.969a9.845,9.845,0,0,0-2.889-7.288,9.648,9.648,0,0,0-7.072-2.872A16.808,16.808,0,0,0,181.517,31.735Zm48.56-.664a8.563,8.563,0,0,0-2.474-.813,20.421,20.421,0,0,0-4.233-.382,15.805,15.805,0,0,0-6.558,1.444,19.078,19.078,0,0,0-5.562,3.752,18.553,18.553,0,0,0-3.785,5.3,13.755,13.755,0,0,0-1.427,5.977,14.029,14.029,0,0,0,1.942,7.421,12.7,12.7,0,0,0,5.1,4.831,14.84,14.84,0,0,0,6.906,1.627,13.157,13.157,0,0,0,4.333-.73,14.154,14.154,0,0,0,3.636-1.826,21.44,21.44,0,0,0,2.523-2.075A10.752,10.752,0,0,0,232,53.782a2.591,2.591,0,0,0,.2-1.262,1.39,1.39,0,0,0-.233-0.714,1.017,1.017,0,0,0-.564-0.481,9.664,9.664,0,0,1-7.438,3.32,9.144,9.144,0,0,1-3.32-.614,9.6,9.6,0,0,1-3.038-1.942,9.272,9.272,0,0,1-2.324-3.8,17.274,17.274,0,0,1-.88-5.794,16.75,16.75,0,0,1,.531-4.167,9.935,9.935,0,0,1,1.627-3.536,3.112,3.112,0,0,1,2.49-1.461,5.8,5.8,0,0,1,4.516,2.059q0.165,0.167.631,0.747a10.8,10.8,0,0,0,.73.847q0.265,0.266.731,0.664a2.974,2.974,0,0,0,.929.564,2.835,2.835,0,0,0,.963.166,3.465,3.465,0,0,0,2.773-1.278,4.3,4.3,0,0,0,1.079-2.839,4.652,4.652,0,0,0-1.328-3.187h0ZM257.27,53.45q0,0.764-1.444,1.61a5.545,5.545,0,0,1-2.806.847,4.056,4.056,0,0,1-4.067-2.606q-1.113-2.606-1.113-8.218V39.106q0-2.722.067-4.184,0.066-.7.3-2.042a14.982,14.982,0,0,1,.365-1.743,1.3,1.3,0,0,0-.4-0.6,1.774,1.774,0,0,0-.73-0.531,34.85,34.85,0,0,1-5.86,2.191,34.738,34.738,0,0,1-7.089,1.328q-0.233,0-.233.979a1.749,1.749,0,0,0,.166,1.079,11.6,11.6,0,0,1,2.308.349,2.739,2.739,0,0,1,1.876.98q0.6,1.129.6,5.445v5.711a21.77,21.77,0,0,0,.431,4.5,13.44,13.44,0,0,0,1.378,3.752,6.777,6.777,0,0,0,2.656,2.673,8.093,8.093,0,0,0,4.035.963,15.815,15.815,0,0,0,4.266-.6A17.44,17.44,0,0,0,255.2,58.2a20.644,20.644,0,0,0,1.876-1.1q0.2-.132.2,0.332V58.5a3.059,3.059,0,0,0,.183,1.145,0.562,0.562,0,0,0,.415.448,18.047,18.047,0,0,0,2.341-.5q2.008-.5,4.7-1.079a40.538,40.538,0,0,1,4.383-.747,2.241,2.241,0,0,0,.4-1.262,1.286,1.286,0,0,0-.2-0.863q-2.391,0-2.989-.664a3.888,3.888,0,0,1-.6-2.523V39.106q0-2.722.066-4.184,0.066-.7.3-2.042a15.44,15.44,0,0,1,.365-1.743,1.3,1.3,0,0,0-.4-0.6,1.783,1.783,0,0,0-.731-0.531,34.816,34.816,0,0,1-5.86,2.191,34.738,34.738,0,0,1-7.089,1.328q-0.233,0-.232.979a1.749,1.749,0,0,0,.166,1.079,11.589,11.589,0,0,1,2.307.349,2.734,2.734,0,0,1,1.876.98q0.6,1.129.6,5.445V53.45ZM281.957,30.39a15.99,15.99,0,0,0-3.952,1.561,8.482,8.482,0,0,0-3.054,2.889,7.625,7.625,0,0,0-1.179,4.2,8.024,8.024,0,0,0,.531,2.972,7.326,7.326,0,0,0,1.577,2.424,15.97,15.97,0,0,0,2.159,1.876A26.079,26.079,0,0,0,280.811,48q0.665,0.366,1.876.93t1.926,0.963a13.733,13.733,0,0,1,1.494.98,3.859,3.859,0,0,1,1.162,1.328,3.713,3.713,0,0,1,.382,1.71,3.475,3.475,0,0,1-1.046,2.523,3.67,3.67,0,0,1-2.739,1.063,6.871,6.871,0,0,1-2.125-.332,7.836,7.836,0,0,1-2.092-1.079,6.156,6.156,0,0,1-1.843-2.225,11.443,11.443,0,0,1-1.112-3.536,1.131,1.131,0,0,0-.6-0.465,2.2,2.2,0,0,0-.863-0.2q-1,0-1,.465,0,0.9.182,4.267t0.349,4.366l1.428,0.365q1.294,0.332,2.042.5t2.009,0.349a16.175,16.175,0,0,0,2.291.183,22.72,22.72,0,0,0,4.98-.515,14.975,14.975,0,0,0,4.134-1.56,7.707,7.707,0,0,0,2.905-2.872,8.234,8.234,0,0,0,1.063-4.217,7.846,7.846,0,0,0-2.889-6.475,26.14,26.14,0,0,0-4.283-2.49q-0.5-.265-1.494-0.7t-1.594-.714a12.614,12.614,0,0,1-1.378-.78,6.353,6.353,0,0,1-1.229-.98,4.268,4.268,0,0,1-.763-1.2,3.765,3.765,0,0,1-.316-1.544,3.369,3.369,0,0,1,1.046-2.656,3.971,3.971,0,0,1,2.739-.93q5.546,0,7.04,6.707a2.55,2.55,0,0,0,1.261.531,2.5,2.5,0,0,0,.8-0.133,0.454,0.454,0,0,0,.4-0.332,28.114,28.114,0,0,0-.482-3.569q-0.481-2.772-.913-4.6-0.366-.066-1.992-0.481t-2.839-.6a17.564,17.564,0,0,0-2.606-.183A17.252,17.252,0,0,0,281.957,30.39Z" transform="translate(-0.031)"></path></svg> 