<svg id="Group_944" data-name="Group 944" xmlns="http://www.w3.org/2000/svg" viewBox="0 0 92.777 92.705">
  <defs>
    <style>
      .cls-1 {
        fill: #00baeb;
      }

      .cls-2 {
        fill: #fff;
      }
    </style>
  </defs>
  <path id="Path_653" data-name="Path 653" class="cls-1" d="M413.309,215.193a49.865,49.865,0,0,0-4.643-11.1,45.993,45.993,0,0,0-16.684-16.684,44.3,44.3,0,0,0-11.1-4.643,46.407,46.407,0,0,0-24.663,0,49.865,49.865,0,0,0-11.1,4.643,47.568,47.568,0,0,0-9.358,7.254,45.977,45.977,0,0,0-7.254,9.43,46.677,46.677,0,0,0-4.643,11.1,46.01,46.01,0,0,0-1.668,12.332,43.279,43.279,0,0,0,1.668,12.332,44.948,44.948,0,0,0,4.643,11.026,47.12,47.12,0,0,0,16.611,16.611,44.3,44.3,0,0,0,11.1,4.643,46.408,46.408,0,0,0,24.663,0,44.3,44.3,0,0,0,11.1-4.643,46.548,46.548,0,0,0,16.684-16.611,44.944,44.944,0,0,0,4.643-11.026,46.408,46.408,0,0,0,0-24.663Z" transform="translate(-322.2 -181.1)"/>
  <path id="Path_666" data-name="Path 666" class="cls-2" d="M402.565,236.694l-10.083-9.43a1.868,1.868,0,0,0-1.161-.508H379.28v-.8a1.959,1.959,0,1,0-3.917,0v.8h-.8a7.43,7.43,0,0,0-4.933,1.959l-7.979,7.544h-6.891A7.771,7.771,0,0,0,347,244.021v3.047a4.133,4.133,0,0,0,4.135,4.135h1.741a6.961,6.961,0,0,0,8.777,4.425,7.062,7.062,0,0,0,4.425-4.425H384.72a6.961,6.961,0,0,0,8.777,4.425,7.063,7.063,0,0,0,4.425-4.425h1.016a4.133,4.133,0,0,0,4.135-4.135v-8.995A1.5,1.5,0,0,0,402.565,236.694Zm-43.088,15.6a3.409,3.409,0,1,1,3.409-3.409A3.405,3.405,0,0,1,359.477,252.29ZM372.1,231.254a3.391,3.391,0,0,1,2.466-.943h2.321v5.876h-10.01Zm-1.016,17.337h-2.829v-2.829h2.829Zm3.047-3.047H371.3v-2.829h2.829Zm3.119,3.047H374.42v-2.829h2.829Zm3.047-3.047h-2.829v-2.829H380.3Zm3.119,3.047h-2.829v-2.829h2.829Zm-2.974-12.4v-5.876h4.933l6.093,5.876Zm10.953,16.1a3.409,3.409,0,1,1,3.409-3.409A3.405,3.405,0,0,1,391.394,252.29Z" transform="translate(-329.01 -192.881)"/>
</svg>
