<svg height="511pt" viewBox="0 -20 511.99971 511" width="511pt" xmlns="http://www.w3.org/2000/svg"><path d="m280.972656 174.886719c0-8.28125-6.71875-15-15-15h-93.171875c-8.28125 0-14.996093 6.71875-14.996093 15s6.714843 15 14.996093 15h93.171875c8.28125 0 15-6.714844 15-15zm0 0"/><path d="m500.0625 236.253906c-2.210938-6.207031-8.214844-10.25-14.792969-9.949218-6.582031.292968-12.199219 4.847656-13.851562 11.226562-3.929688 15.175781-16.203125 29.242188-30.382813 35.148438-.917968-6.5625-3.671875-100.335938-3.671875-100.335938 0-24.082031-12.515625-45.257812-32.722656-56.785156-7.703125-14.566406-41.960937-79.621094-41.960937-79.621094-11.667969-22.191406-33.402344-35.4375-58.132813-35.4375h-171.777344c-24.714843 0-46.4375 13.234375-58.113281 35.398438-6.953125 13.195312-42.121094 80.722656-42.121094 80.722656-20.285156 11.621094-32.53124975 32.566406-32.53124975 56.671875l-.00390625 122.097656c0 22.320313 18.15625 40.476563 40.476562 40.476563h51.035157c22.320312 0 40.476562-18.15625 40.476562-40.476563v-23.515625h71.039063c-2.875 8.542969-4.941406 17.1875-6.15625 25.914062-3.628906 26.078126.515625 52.835938 11.984375 77.390626 12.792969 27.390624 34.792969 52.140624 61.941406 69.6875 26.925781 17.402343 57.675781 26.984374 86.59375 26.984374 25.53125 0 49.421875-5.890624 71-17.511718 20.40625-10.988282 37.796875-26.546875 51.6875-46.246094 33.789063-47.917969 41.261719-112.15625 19.984375-171.839844zm-398.867188-186.375c6.488282-12.316406 17.996094-19.382812 31.574219-19.382812h171.777344c13.589844 0 25.101563 7.074218 31.585937 19.402344 0 0 25.269532 48.054687 27.507813 52.3125-56.5625-12.589844-130.214844-15.503907-144.929687-15.503907-54.152344 0-105.726563 5.636719-145.046876 15.496094 0 0 20.585938-39.136719 27.53125-52.324219zm-71.195312 123.414063c0-4.789063.851562-9.296875 2.449219-13.40625h19.609375c22.253906 0 36.753906 13.71875 42.371094 30h-64.429688zm71.992188 122.097656c0 5.777344-4.703126 10.480469-10.480469 10.480469h-51.035157c-5.777343 0-10.480468-4.703125-10.480468-10.480469v-23.515625h71.996094zm-71.992188-53.511719v-21.996094h82.050781c4 0 7.835938-1.601562 10.652344-4.441406s4.378906-6.6875 4.34375-10.691406c-.164063-18.976562-7.535156-37.734375-20.210937-51.453125-8.941407-9.675781-20.152344-16.546875-32.675782-20.246094 37.289063-10.363281 89.238282-16.347656 144.550782-16.347656 25.945312 0 116.851562 5.417969 164.683593 22.015625 14.785157 5.128906 23.972657 18.011719 23.972657 33.621094v15.132812c-1.867188-2.515625-3.773438-4.980468-5.765626-7.347656-22.066406-26.222656-50.796874-41.71875-80.898437-43.628906-8.269531-.527344-15.394531 5.75-15.921875 14.015625-2.179688 34.289062-13.59375 65.726562-32.222656 88.902343-4.242188-6.148437-7.8125-13.136718-10.625-20.808593-1.84375-5.027344-6.226563-8.691407-11.503906-9.613281-5.273438-.921876-10.640626 1.042968-14.078126 5.148437-7.582031 9.058594-14.097656 18.316406-19.589843 27.738281zm265.199219 182.828125c1.882812-1.820312 3.246093-3.210937 3.902343-3.988281 18.984376-22.464844 31.664063-51.953125 36.460938-84.324219 34.339844 10.011719 62.203125 47.625 69.664062 95.859375-14.671874 6.308594-30.777343 9.601563-47.835937 9.601563-21.183594 0-42.773437-6.289063-62.191406-17.148438zm160.367187-33.902343c-6.734375 9.546874-14.449218 17.839843-22.984375 24.816406-6.011719-27.078125-17.753906-51.84375-33.90625-71.035156-20.546875-24.414063-47.316406-38.84375-75.386719-40.628907-8.277343-.523437-15.390624 5.75-15.917968 14.015625-2.0625 32.417969-13.132813 62.03125-31.179688 83.382813-.871094 1.027343-2.691406 3.351562-5.097656 6.535156-14.738281-12.617187-26.988281-28.121094-35.0625-45.40625-16.578125-35.496094-13.167969-73.828125 9.3125-109.859375 1.558594 2.46875 3.199219 4.855469 4.917969 7.15625 5.085937 6.8125 12.859375 10.867188 21.320312 11.125 8.492188.269531 16.492188-3.324219 21.980469-9.820312 20.726562-24.523438 34.476562-56.835938 39.484375-92.289063 39.589844 10.710937 71.59375 54.609375 78.613281 110.539063 1.054688 8.398437 5.585938 15.503906 12.757813 20 7.171875 4.496093 15.539062 5.476562 23.554687 2.765624 12.222656-4.128906 23.378906-11.558593 32.390625-21.113281 5.566407 39.597657-3.003906 78.914063-24.796875 109.816407zm0 0"/></svg>