<svg xmlns="http://www.w3.org/2000/svg" viewBox="0 0 92.777 92.705">
  <defs>
    <style>
      .cls-1 {
        fill: #00baeb;
      }

      .cls-2 {
        fill: #fff;
      }
    </style>
  </defs>
  <g id="Group_939" data-name="Group 939" transform="translate(0)">
    <path id="Path_648" data-name="Path 648" class="cls-1" d="M252.209,34.093a49.866,49.866,0,0,0-4.643-11.1A45.993,45.993,0,0,0,230.883,6.311a44.3,44.3,0,0,0-11.1-4.643,46.408,46.408,0,0,0-24.663,0,49.865,49.865,0,0,0-11.1,4.643,47.568,47.568,0,0,0-9.358,7.254,45.979,45.979,0,0,0-7.254,9.43,46.675,46.675,0,0,0-4.643,11.1A46.009,46.009,0,0,0,161.1,46.425a43.277,43.277,0,0,0,1.668,12.332,44.946,44.946,0,0,0,4.643,11.026,47.12,47.12,0,0,0,16.611,16.611,44.3,44.3,0,0,0,11.1,4.643,46.408,46.408,0,0,0,24.663,0,44.3,44.3,0,0,0,11.1-4.643,48.022,48.022,0,0,0,9.43-7.254,47.567,47.567,0,0,0,7.254-9.358,44.946,44.946,0,0,0,4.643-11.026,46.408,46.408,0,0,0,0-24.663Z" transform="translate(-161.1)"/>
    <path id="Path_668" data-name="Path 668" class="cls-2" d="M227.374,36.3H215.043a4.675,4.675,0,0,0-4.643,4.643v13.13a4.675,4.675,0,0,0,4.643,4.643h1.741V74.963a.824.824,0,0,0,.218.58l3.845,3.845h0a.485.485,0,0,0,.725,0l3.845-3.845a.824.824,0,0,0,.218-.58V73.077a.886.886,0,0,0-.29-.653l-2.031-2.031h0a.351.351,0,0,1,0-.508l1.813-1.813a1.228,1.228,0,0,0,0-1.668l-1.813-1.813h0a.351.351,0,0,1,0-.508l2.031-2.031a.919.919,0,0,0,.29-.653V58.715h1.741a4.675,4.675,0,0,0,4.643-4.643V40.943A4.583,4.583,0,0,0,227.374,36.3ZM225.2,45.222h-8.487a2.684,2.684,0,0,1,0-5.368H225.2a2.678,2.678,0,0,1,2.684,2.684A2.633,2.633,0,0,1,225.2,45.222Z" transform="translate(-174.638 -9.968)"/>
  </g>
</svg>
