<svg xmlns="http://www.w3.org/2000/svg" viewBox="0 0 93.257 93.184">
  <defs>
    <style>
      .cls-1 {
        fill: #5a1a69;
      }

      .cls-2 {
        fill: #fff;
      }
    </style>
  </defs>
  <g id="Group_1023" data-name="Group 1023" transform="translate(-6433.021 -1462.623)">
    <g id="Group_955" data-name="Group 955" transform="translate(6433.021 1462.623)">
      <path id="Path_754" data-name="Path 754" class="cls-1" d="M362.08,184.77a50.124,50.124,0,0,0-4.667-11.156,46.23,46.23,0,0,0-16.77-16.77,44.531,44.531,0,0,0-11.156-4.666,46.647,46.647,0,0,0-24.791,0,50.124,50.124,0,0,0-11.156,4.666,47.812,47.812,0,0,0-9.406,7.291,46.214,46.214,0,0,0-7.291,9.479,46.915,46.915,0,0,0-4.667,11.156,46.246,46.246,0,0,0-1.677,12.4,43.5,43.5,0,0,0,1.677,12.4,45.177,45.177,0,0,0,4.667,11.083,47.363,47.363,0,0,0,16.7,16.7,44.53,44.53,0,0,0,11.156,4.666,46.647,46.647,0,0,0,24.791,0,44.53,44.53,0,0,0,11.156-4.666,46.788,46.788,0,0,0,16.77-16.7,45.178,45.178,0,0,0,4.667-11.083,46.648,46.648,0,0,0,0-24.791Z" transform="translate(-270.5 -150.5)"/>
      <path id="Path_755" data-name="Path 755" class="cls-2" d="M350.621,199.108a3.494,3.494,0,0,0-2.989-3.573,1.081,1.081,0,0,0-.51-.073c-.437,0-.656-.292-.875-.583a12.684,12.684,0,0,0-.8-1.312,3.411,3.411,0,0,0-2.333-1.385,11.922,11.922,0,0,0-1.6-.146.936.936,0,0,1-.729-.292,2.727,2.727,0,0,0-1.823-.729.62.62,0,0,1-.365-.219,1.841,1.841,0,0,0-1.385-.8,1.393,1.393,0,0,1-1.021-.51,2.09,2.09,0,0,0-2.552-.583c-.51.292-.948.073-1.458.146a4.323,4.323,0,0,1,.292-.437,2.2,2.2,0,0,0-.437-2.844,3.9,3.9,0,0,1-.948-.948,6.838,6.838,0,0,0-.656-.875,2.454,2.454,0,0,0-4.01,0c-.219.219-.365.51-.583.729a9.509,9.509,0,0,0-1.823-.729,2.007,2.007,0,0,0-2.406.875c-.292.583-.875.656-1.385.875,0-.146.073-.219.073-.292a2.211,2.211,0,0,0-.292-2.114c-.073-.073-.073-.292-.073-.365a2.1,2.1,0,0,0-1.021-1.531,2.408,2.408,0,0,0-3.135.729.9.9,0,0,1-.583.292,11.924,11.924,0,0,1-1.6-.146,7.192,7.192,0,0,0-1.75-.219,2.067,2.067,0,0,0-1.969,2.406,2.465,2.465,0,0,0,.948,1.312c.146.073.219.219.365.365l-.146.146c-.146-.146-.365-.219-.51-.365a2.458,2.458,0,0,0-2.771-1.021.551.551,0,0,0-.292.073c-.948.219-1.823.365-2.7.656a1.877,1.877,0,0,0-1.24,2.552.331.331,0,0,1,0,.365,2.773,2.773,0,0,0,.51,2.479.268.268,0,0,1,.073.219l-.219,1.75h-.146a3.834,3.834,0,0,0-3.354,1.969A20.49,20.49,0,0,0,299,197.8a2.22,2.22,0,0,0,.656,2.917.557.557,0,0,1,.146.365,1.777,1.777,0,0,0,.875,1.531c.656.292,1.24.729,1.9.948a7.609,7.609,0,0,1,1.75.8,1.054,1.054,0,0,0,.51.146c.8.073,1.6.146,2.333.219a1.911,1.911,0,0,0,1.969-1.021c.073-.146.292-.219.438-.292.073.219.073.365.146.437a2.4,2.4,0,0,0,1.385,1.823c.51.219,1.094.365,1.6.583.365.146.8.292,1.167.438.583.292,1.094.875,1.823.875.073,0,.146.146.219.219.146.437.146.875.292,1.312a2.63,2.63,0,0,0,.583,1.094,3.445,3.445,0,0,0,1.458.729,2.745,2.745,0,0,1,1.094.656.226.226,0,0,0-.073.146,2.869,2.869,0,0,0-.437,2.844.465.465,0,0,1,0,.438,2.612,2.612,0,0,0,1.75,3.062.728.728,0,0,1,.292.365l.437,1.094a.379.379,0,0,1,.146.292,2.312,2.312,0,0,0,.583,1.823l-1.75,1.75a1.872,1.872,0,0,0-.365.875c-.073.146-.146.365-.219.51A1.9,1.9,0,0,0,320,227.69a13.729,13.729,0,0,1,1.677,1.167c.438.365.948.656.656,1.458a1.8,1.8,0,0,0,.948,2.187,2.12,2.12,0,0,0,2.406-.292,5.265,5.265,0,0,0,1.312-1.75.728.728,0,0,1,.292-.365A3.375,3.375,0,0,0,328.456,229c.073-.146.219-.219.292-.292a2.2,2.2,0,0,0,1.458-1.969.788.788,0,0,1,.219-.51,3.551,3.551,0,0,0,1.094-1.969c.146-.875.219-1.75.365-2.625a2.922,2.922,0,0,0,1.969-.656l.437-.219a10.63,10.63,0,0,0,1.385-.51,1.258,1.258,0,0,1,1.24-.073,2.284,2.284,0,0,0,2.7-.729,11.605,11.605,0,0,0,.948-1.6,2.505,2.505,0,0,1,.948-1.167,2.909,2.909,0,0,0,1.531-2.333,4.736,4.736,0,0,1,.8-2.406c.073-.073.073-.146.146-.292a2.681,2.681,0,0,0,.365-1.823,1.5,1.5,0,0,1,.219-1.094c.073-.146.073-.292.146-.437.073-.073.146-.219.219-.219.8-.292,1.094-1.021,1.385-1.75a1.078,1.078,0,0,1,.583-.8c.438-.219.8-.437,1.24-.656a3.743,3.743,0,0,0,1.6-1.75,8.112,8.112,0,0,0,.875-4.01" transform="translate(-278.145 -158.786)"/>
    </g>
  </g>
</svg>
