<svg xmlns="http://www.w3.org/2000/svg" viewBox="0 0 93.256 93.184">
  <defs>
    <style>
      .cls-1 {
        fill: #00baeb;
      }

      .cls-2 {
        fill: #fff;
      }
    </style>
  </defs>
  <g id="Group_971" data-name="Group 971" transform="translate(-6448.843 -1572.796)">
    <g id="Group_962" data-name="Group 962" transform="translate(6448.843 1572.796)">
      <path id="Path_759" data-name="Path 759" class="cls-1" d="M383.78,335.87a50.123,50.123,0,0,0-4.666-11.156,46.23,46.23,0,0,0-16.77-16.77,44.531,44.531,0,0,0-11.156-4.666,46.648,46.648,0,0,0-24.791,0,50.122,50.122,0,0,0-11.156,4.666,47.812,47.812,0,0,0-9.406,7.291,46.214,46.214,0,0,0-7.291,9.479,46.915,46.915,0,0,0-4.667,11.156,46.648,46.648,0,0,0,0,24.791,45.178,45.178,0,0,0,4.667,11.083,47.364,47.364,0,0,0,16.7,16.7,44.531,44.531,0,0,0,11.156,4.666,46.648,46.648,0,0,0,24.791,0,44.531,44.531,0,0,0,11.156-4.666,46.789,46.789,0,0,0,16.77-16.7,45.177,45.177,0,0,0,4.666-11.083,46.647,46.647,0,0,0,0-24.791Z" transform="translate(-292.2 -301.6)"/>
      <g id="Group_959" data-name="Group 959" transform="translate(17.422 30.182)">
        <path id="Path_760" data-name="Path 760" class="cls-2" d="M381.988,363.86l-9.406-8.823a1.608,1.608,0,0,0-1.094-.437H355.811a6.769,6.769,0,0,0-4.594,1.823l-7.437,7h-.729a2.343,2.343,0,0,0-2.26-1.823h0a2.518,2.518,0,0,0-1.969,1.021,2.325,2.325,0,0,0-1.969-1.021h0a2.342,2.342,0,0,0-2.26,1.75,2.342,2.342,0,0,0-2.26-1.75A2.3,2.3,0,0,0,330,363.933l.656,9.552c0,2.115,1.385,4.083,4.521,3.864h.292a6.465,6.465,0,0,0,8.239,4.083,6.335,6.335,0,0,0,4.083-4.083h17.426a6.465,6.465,0,0,0,8.239,4.083,6.335,6.335,0,0,0,4.083-4.083h.948a3.843,3.843,0,0,0,3.864-3.864V365.1A1.111,1.111,0,0,0,381.988,363.86Zm-40.248,14.583a3.208,3.208,0,1,1,3.208-3.208A3.19,3.19,0,0,1,341.739,378.443Zm11.812-19.687a3.26,3.26,0,0,1,2.26-.875h2.115v5.469h-9.333Zm4.229,10.5h-2.042a1.138,1.138,0,0,1-1.167-1.094A1.152,1.152,0,0,1,355.739,367h2.042a1.152,1.152,0,0,1,1.167,1.167A1.138,1.138,0,0,1,357.78,369.256Zm3.573-5.906v-5.469h4.594l5.687,5.469Zm10.208,15.093a3.129,3.129,0,0,1-3.135-3.208,3.19,3.19,0,0,1,3.208-3.208,3.145,3.145,0,0,1,3.208,3.208A3.3,3.3,0,0,1,371.561,378.443Z" transform="translate(-319.861 -346.138)"/>
        <path id="Path_761" data-name="Path 761" class="cls-2" d="M322.952,376.1l-2.26-30.988a2.3,2.3,0,0,0-4.594.365l2.187,30.624a2.49,2.49,0,0,0-2.042,2.406v.146h8.968v-.146A2.508,2.508,0,0,0,322.952,376.1Z" transform="translate(-316.095 -342.995)"/>
      </g>
      <g id="Group_960" data-name="Group 960" transform="translate(24.315 35.938)">
        <path id="Path_762" data-name="Path 762" class="cls-2" d="M329.815,360.084l-.073-.729c1.385-.146,2.406-.292,3.208-.437a2.526,2.526,0,0,1-1.823-1.094,2.4,2.4,0,0,1,.073-2.114,3.128,3.128,0,0,1-2.333,1.24c-1.24-.146-1.969-1.969-2.479-3.5.073.729.146,1.6.365,2.917l-.729.073c-.729-5.4-.51-5.4-.073-5.541.437-.073.583.292.875,1.385.365,1.312,1.094,3.719,2.187,3.864.875.146,2.042-1.312,2.625-2.115.51-.656.8-1.021,1.167-.729.365.219.146.583-.219,1.24-.437.8-1.167,2.187-.8,2.917.438.729,1.969.8,2.844.8.656,0,1.021,0,1.021.437C335.575,359.209,335.648,359.428,329.815,360.084Z" transform="translate(-325.548 -350.888)"/>
      </g>
      <g id="Group_961" data-name="Group 961" transform="translate(24.718 60.194)">
        <path id="Path_763" data-name="Path 763" class="cls-2" d="M329.235,384.261v.365a15.345,15.345,0,0,0-1.677-.073c.365.146.729.365.8.729a1.225,1.225,0,0,1-.219,1.094,1.9,1.9,0,0,1,1.312-.437c.656.219.8,1.167.948,2.042,0-.365.073-.875.073-1.531h.365c-.146,2.844-.292,2.844-.51,2.844s-.219-.219-.292-.8c-.073-.729-.219-2.042-.729-2.187-.438-.146-1.167.51-1.531.8s-.51.438-.656.292,0-.365.219-.583c.292-.365.8-1.021.656-1.385-.146-.437-.948-.583-1.385-.656-.292-.073-.51-.146-.51-.292C326.173,384.188,326.173,384.042,329.235,384.261Z" transform="translate(-326.1 -384.156)"/>
      </g>
    </g>
  </g>
</svg>
