<svg xmlns="http://www.w3.org/2000/svg" viewBox="0 0 93.257 93.184">
  <defs>
    <style>
      .cls-1 {
        fill: #00baeb;
      }

      .cls-2 {
        fill: #fff;
      }
    </style>
  </defs>
  <g id="Group_964" data-name="Group 964" transform="translate(-6337.504 -1352.887)">
    <g id="Group_952" data-name="Group 952" transform="translate(6337.504 1352.887)">
      <path id="Path_717" data-name="Path 717" class="cls-1" d="M231.08,34.27a50.124,50.124,0,0,0-4.666-11.156,46.23,46.23,0,0,0-16.77-16.77,44.53,44.53,0,0,0-11.156-4.666,46.647,46.647,0,0,0-24.791,0,50.122,50.122,0,0,0-11.156,4.666,47.813,47.813,0,0,0-9.406,7.291,46.215,46.215,0,0,0-7.291,9.479,46.916,46.916,0,0,0-4.666,11.156,46.247,46.247,0,0,0-1.677,12.4,43.5,43.5,0,0,0,1.677,12.4,45.178,45.178,0,0,0,4.666,11.083,47.364,47.364,0,0,0,16.7,16.7A44.531,44.531,0,0,0,173.7,91.507a46.647,46.647,0,0,0,24.791,0,44.531,44.531,0,0,0,11.156-4.666,48.271,48.271,0,0,0,9.479-7.291,47.814,47.814,0,0,0,7.291-9.406A45.179,45.179,0,0,0,231.08,59.06a46.247,46.247,0,0,0,1.677-12.4A43.856,43.856,0,0,0,231.08,34.27Z" transform="translate(-139.5 0)"/>
      <path id="Path_718" data-name="Path 718" class="cls-2" d="M182.582,45.7l-5.76-.656a3.062,3.062,0,0,1,5.76.656m-1.9.219,1.458.365c-.437.729-1.385.729-1.458-.365m-4.083.583v-.073l5.76,1.24a2.913,2.913,0,0,1-2.552,1.677,3.026,3.026,0,0,1-3.208-2.844m10.645,5.687-.219-2.406v-.146a1.628,1.628,0,0,1,.219-1.021,1.063,1.063,0,0,1,.948-.51,4.662,4.662,0,0,1,2.479,1.167l-.583.729A5.607,5.607,0,0,0,189,49.278a2.377,2.377,0,0,0-.729-.219c-.146,0-.146,0-.146.073a1.085,1.085,0,0,0,0,.51h0l.219,2.26Zm-30.405,1.823a3.837,3.837,0,0,1,3.062-4.958c2.625-.656,4.448,1.385,4.739,4.083l-1.021.656c-1.021-1.167-2.042.365-2.552,1.167-1.312,1.969-3.937.437-4.229-.948m7.8,4.229V56.788l1.24-.729,1.094.8ZM187.9,60l-.365-4.083.875-.365.437,4.375Zm-6.052,13.343-2.7-6.781L172.885,63.2l-2.114,6.562-8.458-1.021L159.76,70.5l1.385-4.01,7.583.073.219-5.541-1.385-.583,4.885-7.656-3.208.365-2.333,1.6-.51,1.24-.656-.583-1.458.948-.583-1.677,5.4-3.864,5.25-1.458,5.833,1.823,2.406,3.719,3.281-1.385.948-.8.073.437,1.75-.583.146,1.823-6.927,3.573L178.5,54.6l-3.062,4.448,6.052,5.469,2.115,6.271,3.062.583Z" transform="translate(-144.157 -11.727)"/>
      <path id="Path_719" data-name="Path 719" class="cls-2" d="M231.784,61.606a2.146,2.146,0,1,1,1.75-2.479,2.143,2.143,0,0,1-1.75,2.479M211.66,55.116c-1.9,0-3.062-1.312-2.479-2.771l1.24-3.281c.365-1.021,1.9-1.823,3.354-1.823h12.468a3.749,3.749,0,0,1,3.354,1.823l1.24,3.281c.51,1.458-.583,2.771-2.479,2.7Zm-2.479,6.562a2.187,2.187,0,1,1,2.187-2.187,2.194,2.194,0,0,1-2.187,2.187m27.124-8.6c-.8,0-1.6-.073-2.333,0a.866.866,0,0,1-.948-.656c-.437-1.24-.875-2.479-1.312-3.646a5.218,5.218,0,0,0-5.25-3.573H213.118a5.188,5.188,0,0,0-5.1,3.5c-.51,1.24-.948,2.479-1.385,3.792a.773.773,0,0,1-.948.656c-.729-.073-1.531,0-2.26,0-.875.073-1.021.292-1.021,1.531,0,.729.292,1.167,1.094,1.094h1.823c-1.6,2.042-1.385,4.229-1.385,6.416v9.625c0,2.042.146,2.115,2.187,2.115h.292c1.021,0,1.312-.365,1.385-1.385V70.209h24.28v2.333c0,1.021.365,1.312,1.312,1.312,2.406.073,2.479,0,2.479-2.479V61.314c0-1.9.073-3.864-1.385-5.614h1.9c.875,0,1.021-.437,1.021-1.167-.146-.729-.073-1.458-1.094-1.458" transform="translate(-156.537 -12.243)"/>
    </g>
  </g>
</svg>
