<svg id="Group_945" data-name="Group 945" xmlns="http://www.w3.org/2000/svg" xmlns:xlink="http://www.w3.org/1999/xlink" viewBox="0 0 92.778 92.705">
  <defs>
    <style>
      .cls-1 {
        fill: #fff;
      }

      .cls-2 {
        fill: #00baeb;
      }

      .cls-3 {
        clip-path: url(#clip-path);
      }
    </style>
    <clipPath id="clip-path">
      <rect id="Rectangle_109" data-name="Rectangle 109" class="cls-1" width="50.125" height="40.114"/>
    </clipPath>
  </defs>
  <path id="Path_654" data-name="Path 654" class="cls-2" d="M574.409,215.193a49.865,49.865,0,0,0-4.643-11.1,45.992,45.992,0,0,0-16.684-16.684,44.3,44.3,0,0,0-11.1-4.643,46.407,46.407,0,0,0-24.663,0,49.865,49.865,0,0,0-11.1,4.643,47.57,47.57,0,0,0-9.358,7.254,45.981,45.981,0,0,0-7.254,9.43,46.675,46.675,0,0,0-4.642,11.1,46.007,46.007,0,0,0-1.668,12.332,43.276,43.276,0,0,0,1.668,12.332,44.947,44.947,0,0,0,4.642,11.026,47.12,47.12,0,0,0,16.611,16.611,44.3,44.3,0,0,0,11.1,4.643,46.408,46.408,0,0,0,24.663,0,44.3,44.3,0,0,0,11.1-4.643,46.548,46.548,0,0,0,16.684-16.611,44.946,44.946,0,0,0,4.643-11.026,46.408,46.408,0,0,0,0-24.663Z" transform="translate(-483.3 -181.1)"/>
  <g id="Group_937" data-name="Group 937" transform="translate(21.399 27.347)">
    <g id="Group_936" data-name="Group 936" class="cls-3" transform="translate(0 0)">
      <path id="Path_665" data-name="Path 665" class="cls-1" d="M516.907,237.2h41.71a2.57,2.57,0,0,1,2.539,2.539H514.368a2.569,2.569,0,0,1,2.539-2.539m17.554-1.668H521.115v-5.876a.882.882,0,0,1,.87-.87h11.679a.882.882,0,0,1,.87.87v5.876Zm20.093,0H541.208v-5.876a.882.882,0,0,1,.87-.87h11.679a.882.882,0,0,1,.87.87v5.876Zm-37.648-11.751h27.565v-1.668h-27.42a2.513,2.513,0,0,1,2.321-1.668h36.777a2.442,2.442,0,0,1,2.321,1.668H549.4v1.668h9.212v11.679h-2.539v-5.876a2.57,2.57,0,0,0-2.539-2.539H541.861a2.57,2.57,0,0,0-2.539,2.539v5.876H536.13v-5.876a2.57,2.57,0,0,0-2.539-2.539H521.912a2.57,2.57,0,0,0-2.539,2.539v5.876h-2.539V223.778Zm43.451,12.041V222.907a4.21,4.21,0,0,0-4.207-4.207h-36.7a4.21,4.21,0,0,0-4.207,4.207v12.912a4.247,4.247,0,0,0-2.539,3.845v15.016a.882.882,0,0,0,.87.87h.87v2.539a.882.882,0,0,0,.87.87h3.337a.882.882,0,0,0,.87-.87V255.55H556.3v2.539a.882.882,0,0,0,.87.87H560.5a.882.882,0,0,0,.87-.87V255.55h.87a.882.882,0,0,0,.87-.87V239.664a4.823,4.823,0,0,0-2.757-3.845" transform="translate(-512.773 -218.773)"/>
    </g>
  </g>
</svg>
