<svg xmlns="http://www.w3.org/2000/svg" viewBox="0 0 93.257 93.184">
  <defs>
    <style>
      .cls-1 {
        fill: #00baeb;
      }

      .cls-2 {
        fill: #fff;
      }
    </style>
  </defs>
  <g id="Group_965" data-name="Group 965" transform="translate(-7528.739 -1349.887)">
    <g id="Group_953" data-name="Group 953" transform="translate(7528.739 1349.887)">
      <path id="Path_720" data-name="Path 720" class="cls-1" d="M367.18,34.27a50.123,50.123,0,0,0-4.666-11.156,46.23,46.23,0,0,0-16.77-16.77,44.531,44.531,0,0,0-11.156-4.666A47.059,47.059,0,0,0,322.192,0a46.247,46.247,0,0,0-12.4,1.677,45.7,45.7,0,0,0-20.562,11.958,46.215,46.215,0,0,0-7.291,9.479,46.916,46.916,0,0,0-4.666,11.156,46.245,46.245,0,0,0-1.677,12.4,43.5,43.5,0,0,0,1.677,12.4,45.178,45.178,0,0,0,4.666,11.083,47.364,47.364,0,0,0,16.7,16.7A44.531,44.531,0,0,0,309.8,91.507a46.647,46.647,0,0,0,24.791,0,44.531,44.531,0,0,0,11.156-4.666,48.271,48.271,0,0,0,9.479-7.291,47.813,47.813,0,0,0,7.291-9.406A45.179,45.179,0,0,0,367.18,59.06a46.649,46.649,0,0,0,0-24.791Z" transform="translate(-275.6 0)"/>
      <path id="Path_721" data-name="Path 721" class="cls-2" d="M344.509,67.808a2.187,2.187,0,1,1-2.187-2.187,2.148,2.148,0,0,1,2.187,2.187m-22.312,0a2.187,2.187,0,1,1-2.187-2.187,2.194,2.194,0,0,1,2.187,2.187m25.155-3.135a20.54,20.54,0,0,1-2.26.51h-.073a3.01,3.01,0,0,1-1.458-.219.848.848,0,0,1-.437-1.094c.292-2.552.292-4.521-1.531-6.2a.137.137,0,0,0-.219,0c-1.9,1.75-2.187,3.792-1.9,6.271a1.139,1.139,0,0,1-1.021.948c-1.677,0-8.823-.437-9.77-6.635a9.254,9.254,0,0,1,.8-6.052c.146-.219.8-1.385,1.021-1.6h-6.635a5.43,5.43,0,0,0-5.4,3.646c-.51,1.312-1.021,2.625-1.458,3.937-.219.583-.438.729-1.021.729a13.262,13.262,0,0,0-2.406,0c-.948.073-1.094.292-1.094,1.6,0,.8.292,1.24,1.094,1.167h1.9c-1.677,2.115-1.458,4.448-1.458,6.708V78.526c0,2.115.146,2.26,2.26,2.26h.292c1.094,0,1.385-.365,1.385-1.458V76.922h25.52V79.4c0,1.021.365,1.385,1.385,1.385,2.552.073,2.625,0,2.625-2.552V67.662a8.1,8.1,0,0,0-.146-2.989" transform="translate(-285.595 -13.706)"/>
      <path id="Path_722" data-name="Path 722" class="cls-2" d="M357.99,54.424a6.762,6.762,0,0,1-4.229,3.062c-.51.146-1.167.292-1.75.437a9.039,9.039,0,0,0-2.771-7.51,1.057,1.057,0,0,0-1.458,0,9.234,9.234,0,0,0-2.844,7.51c-1.531-.146-6.344-.948-6.854-5.833a7.975,7.975,0,0,1,1.823-5.906c.292-.365.583-.8.948-1.24,2.042-2.771,4.594-6.927,4.375-10.208a.438.438,0,0,1,.073-.292.379.379,0,0,1,.292-.146h.146c5.323,2.917,7.656,7.51,7,13.635l-.073.8.729-.365a9.437,9.437,0,0,0,3.646-3.135.557.557,0,0,1,.365-.146h0a.4.4,0,0,1,.365.219c.875,2.187,1.969,6.2.219,9.114" transform="translate(-292.514 -9.291)"/>
    </g>
  </g>
</svg>
