<svg id="Group_941" data-name="Group 941" xmlns="http://www.w3.org/2000/svg" viewBox="0 0 92.778 92.705">
  <defs>
    <style>
      .cls-1 {
        fill: #00baeb;
      }

      .cls-2 {
        fill: #fff;
      }
    </style>
  </defs>
  <path id="Path_650" data-name="Path 650" class="cls-1" d="M574.409,34.093a49.864,49.864,0,0,0-4.643-11.1A45.992,45.992,0,0,0,553.083,6.311a44.3,44.3,0,0,0-11.1-4.643A46.817,46.817,0,0,0,529.653,0a46.009,46.009,0,0,0-12.332,1.668,49.865,49.865,0,0,0-11.1,4.643,47.569,47.569,0,0,0-9.358,7.254,45.981,45.981,0,0,0-7.254,9.43,46.675,46.675,0,0,0-4.642,11.1A46.007,46.007,0,0,0,483.3,46.425a43.276,43.276,0,0,0,1.668,12.332,44.946,44.946,0,0,0,4.642,11.026,47.12,47.12,0,0,0,16.611,16.611,44.3,44.3,0,0,0,11.1,4.643,46.408,46.408,0,0,0,24.663,0,44.3,44.3,0,0,0,11.1-4.643,48.023,48.023,0,0,0,9.43-7.254,47.568,47.568,0,0,0,7.254-9.358,44.946,44.946,0,0,0,4.643-11.026,46.408,46.408,0,0,0,0-24.663Z" transform="translate(-483.3)"/>
  <path id="Path_661" data-name="Path 661" class="cls-2" d="M558.977,47.082H554.77v-2.1a1.4,1.4,0,0,0-1.451-1.378h-5.3a1.377,1.377,0,0,0-1.378,1.378v2.1H533.3v-2.1a1.4,1.4,0,0,0-1.451-1.378h-5.368a1.494,1.494,0,0,0-1.451,1.378h0v2.1h-4.135A2.353,2.353,0,0,0,518.5,49.4h0V53.61a2.277,2.277,0,0,0,1.451,2.1V72.471a2.26,2.26,0,0,0,2.249,2.249h35.327a2.26,2.26,0,0,0,2.249-2.249V55.787a2.5,2.5,0,0,0,1.451-2.176V49.4A2.232,2.232,0,0,0,558.977,47.082ZM535.764,63.331a.615.615,0,0,1-.508.58h-1.741v1.741a.616.616,0,0,1-.58.508H531.92a.616.616,0,0,1-.58-.508V63.911H529.6a.615.615,0,0,1-.508-.58V62.315a.616.616,0,0,1,.508-.58h1.741V59.994a.616.616,0,0,1,.58-.508h1.016a.616.616,0,0,1,.58.508v1.741h1.741a.552.552,0,0,1,.435.58v1.016Zm14.943,0a.616.616,0,0,1-.508.58h-5.658a.615.615,0,0,1-.508-.58V62.315a.615.615,0,0,1,.508-.58H550.2a.616.616,0,0,1,.508.58Z" transform="translate(-492.966 -11.973)"/>
</svg>
