<svg id="Group_942" data-name="Group 942" xmlns="http://www.w3.org/2000/svg" viewBox="0 0 92.777 92.705">
  <defs>
    <style>
      .cls-1 {
        fill: #00baeb;
      }

      .cls-2 {
        fill: #fff;
      }
    </style>
  </defs>
  <path id="Path_651" data-name="Path 651" class="cls-1" d="M91.109,215.193a49.865,49.865,0,0,0-4.643-11.1,45.992,45.992,0,0,0-16.684-16.684,44.3,44.3,0,0,0-11.1-4.643,46.407,46.407,0,0,0-24.663,0,49.865,49.865,0,0,0-11.1,4.643,47.568,47.568,0,0,0-9.358,7.254,45.978,45.978,0,0,0-7.254,9.43,46.675,46.675,0,0,0-4.643,11.1A46.009,46.009,0,0,0,0,227.525a43.277,43.277,0,0,0,1.668,12.332,44.946,44.946,0,0,0,4.643,11.026,47.12,47.12,0,0,0,16.611,16.611,44.3,44.3,0,0,0,11.1,4.643,46.408,46.408,0,0,0,24.663,0,44.3,44.3,0,0,0,11.1-4.643,46.548,46.548,0,0,0,16.684-16.611,44.946,44.946,0,0,0,4.643-11.026,46.408,46.408,0,0,0,0-24.663Z" transform="translate(0 -181.1)"/>
  <path id="Path_667" data-name="Path 667" class="cls-2" d="M50.006,220.3a1.416,1.416,0,0,0-1.378,1.523v.725c-.073-.073-.073-.145-.145-.218L47.1,220.88a1.669,1.669,0,0,0-2.466,0l-5.223,5.586a1.986,1.986,0,0,0,0,2.611l1.378,1.451a1.713,1.713,0,0,0,.653.435,6.5,6.5,0,0,0-3.047,5.586v13.13a6.249,6.249,0,0,0,6.021,6.456H68.069a6.308,6.308,0,0,0,6.093-6.456V228.062a3.574,3.574,0,0,0-.725-2.1l-3.192-4.933v-.073h0a1.373,1.373,0,0,0-1.161-.653Zm5.078,4.425H66.037a.694.694,0,0,1,.653.363l1.378,2.611a.674.674,0,0,1-.218.943c-5.005.073-10.373.073-14.725.073H52.98a.49.49,0,0,1-.29-.435v-.943a.4.4,0,0,1,.218-.363l.073-.073,1.813-1.959A.389.389,0,0,1,55.084,224.725Zm1.161,8.7c1.161,4.135,5.44,8.124,5.368,11.461,0,2.539-1.741,5.8-5.223,5.8a5.7,5.7,0,0,1-5.513-5.731C50.949,241.191,54.794,237.492,56.245,233.43Z" transform="translate(-10.545 -191.865)"/>
</svg>
