<svg xmlns="http://www.w3.org/2000/svg" viewBox="0 0 91.872 91.8">
  <defs>
    <style>
      .cls-1 {
        fill: #00baeb;
      }

      .cls-2 {
        fill: #fff;
      }
    </style>
  </defs>
  <g id="Group_1051" data-name="Group 1051" transform="translate(-382.014 -2726)">
    <path id="Path_669" data-name="Path 669" class="cls-1" d="M90.22,33.761a49.378,49.378,0,0,0-4.6-10.99A45.544,45.544,0,0,0,69.1,6.249a49.378,49.378,0,0,0-10.99-4.6,45.955,45.955,0,0,0-24.423,0,48,48,0,0,0-10.99,4.6,47.1,47.1,0,0,0-9.266,7.183A45.529,45.529,0,0,0,6.249,22.77a46.219,46.219,0,0,0-4.6,10.99A43.205,43.205,0,0,0,0,45.972,42.855,42.855,0,0,0,1.652,58.183,44.507,44.507,0,0,0,6.249,69.1,46.66,46.66,0,0,0,22.7,85.551a43.869,43.869,0,0,0,10.99,4.6,45.955,45.955,0,0,0,24.423,0,43.869,43.869,0,0,0,10.99-4.6,47.554,47.554,0,0,0,9.338-7.183A47.1,47.1,0,0,0,85.623,69.1a44.507,44.507,0,0,0,4.6-10.918,45.955,45.955,0,0,0,0-24.423Z" transform="translate(382.014 2726)"/>
    <g id="Group_1050" data-name="Group 1050">
      <path id="Path_670" data-name="Path 670" class="cls-2" d="M78.876,38.138h0a2.311,2.311,0,0,0,.5-.287l.287-.072h0a1.112,1.112,0,0,1,.431-.144h0c1.006-.359,1.8-.718,2.3-.934a9.1,9.1,0,0,0,1.58-.934,4.476,4.476,0,0,0,1.652-2.873,3.723,3.723,0,0,0-.646-2.945A3.6,3.6,0,0,0,82.037,28.8a5.276,5.276,0,0,0-4.956,2.873h0a.576.576,0,0,0-.072.575.736.736,0,0,0,.431.359l.862.359a.867.867,0,0,0,1.006-.431A2.724,2.724,0,0,1,81.749,31.1a1.579,1.579,0,0,1,1.221.431,1.19,1.19,0,0,1,.215,1.221,2.642,2.642,0,0,1-1.077,1.58,10.757,10.757,0,0,1-2.3,1.006,10.735,10.735,0,0,0-2.011.934,4.217,4.217,0,0,0-2.011,2.873L75.5,40.437a.774.774,0,0,0,.144.575.652.652,0,0,0,.5.215H83.33a.8.8,0,0,0,.862-.718l.144-.79a.763.763,0,0,0-.072-.575.707.707,0,0,0-.575-.215H78.3v-.072a.853.853,0,0,1,.575-.718" transform="translate(360.746 2717.887)"/>
      <path id="Path_671" data-name="Path 671" class="cls-2" d="M96.428,32.548l-.646,3.735H92.693Zm3.089,4.023a.707.707,0,0,0-.575-.215h-.934l1.149-6.465a.763.763,0,0,0-.072-.575.707.707,0,0,0-.575-.215h-.934a1.418,1.418,0,0,0-1.006.431l-6.752,6.9a1.351,1.351,0,0,0-.359.79l-.072.575a.763.763,0,0,0,.072.575.707.707,0,0,0,.575.215H95.35l-.359,1.939a.763.763,0,0,0,.072.575.707.707,0,0,0,.575.215h.79a.84.84,0,0,0,.862-.718l.359-2.011h1.006a.84.84,0,0,0,.862-.718l.144-.718c0-.287,0-.5-.144-.575" transform="translate(356.843 2717.803)"/>
      <path id="Path_672" data-name="Path 672" class="cls-2" d="M76.673,48.438a1.257,1.257,0,0,0,.072.359,7.633,7.633,0,0,1,.215,1.006,21.415,21.415,0,0,1,.5,3.951v2.083a3.222,3.222,0,0,1-.072.79v.431a.911.911,0,0,1-.072.431c0,.287-.072.575-.072.862a14.382,14.382,0,0,1-.287,1.724c-.144.575-.287,1.221-.431,1.8-.072.287-.215.646-.287.934a1.038,1.038,0,0,0-.144.5,3.5,3.5,0,0,0-.215.5,23.19,23.19,0,0,1-1.939,3.735,26.663,26.663,0,0,1-2.8,3.735,24.372,24.372,0,0,1-3.735,3.376,24.012,24.012,0,0,1-4.6,2.658,25.452,25.452,0,0,1-5.315,1.652c-.144,0-.215.072-.359.072h-.287c-.215,0-.5.072-.718.072l-.359.072h-.359c-.215,0-.5.072-.718.072H51.748a2.444,2.444,0,0,1-.718-.072H50.67l-.359.072c-.215,0-.5-.072-.718-.072a.648.648,0,0,1-.359-.072l-.359-.072-.359-.072a.648.648,0,0,1-.359-.072c-.215-.072-.5-.072-.718-.144l-.359-.072-.431-.072c-.215-.072-.5-.144-.718-.215-.144,0-.215-.072-.359-.144l-.359-.072-.359-.144-.215-.072a.251.251,0,0,1-.144-.072,3,3,0,0,1-.718-.287c-.144-.072-.215-.072-.359-.144l-.359-.144a7.452,7.452,0,0,0-.718-.287c-.215-.144-.431-.215-.646-.359l-.359-.144c-.144-.072-.215-.144-.359-.215l-.646-.359c-.144-.072-.215-.144-.359-.215l-.359-.215-.144-.144-.144-.072-.144-.144c-.431-.287-.862-.575-1.221-.862a3.984,3.984,0,0,1-.575-.431l-.575-.5c-.072-.072-.215-.144-.287-.215l-.287-.287-.575-.5a21.452,21.452,0,0,1-2.083-2.3l-.215-.287-.144-.144L33,69.413l-.431-.646-.431-.646-.431-.646a25.888,25.888,0,0,1-2.586-5.531,24.415,24.415,0,0,1-1.149-5.89,2.444,2.444,0,0,0-.072-.718V53.179a2.444,2.444,0,0,1,.072-.718V52.1a.648.648,0,0,1,.072-.359,8.618,8.618,0,0,1,.215-1.437,28.579,28.579,0,0,1,1.508-5.531,25.637,25.637,0,0,1,2.586-4.813,22.732,22.732,0,0,1,3.376-3.951,29.192,29.192,0,0,1,3.807-3.017,20.972,20.972,0,0,1,3.951-2.083c.144-.072.359-.144.5-.215.072,0,.144-.072.215-.072s.072,0,.144-.072l.144-.072c.359-.144.646-.215,1.006-.359.287-.072.646-.215.934-.287s.646-.144.934-.215c.646-.144,1.221-.287,1.8-.359.287-.072.575-.072.862-.144.144,0,.287-.072.431-.072a.911.911,0,0,0,.431-.072c.287,0,.575-.072.79-.072H53.9a19.146,19.146,0,0,1,4.238.431,6.89,6.89,0,0,1,1.077.215,1.257,1.257,0,0,0,.359.072,1.777,1.777,0,1,1-.862,3.448h-.072a.716.716,0,0,1-.287-.072,6.157,6.157,0,0,0-.934-.215c-.431-.072-.934-.215-1.58-.287-.287-.072-.646-.072-1.006-.144-.359,0-.718-.072-1.149-.072H51.676a2.444,2.444,0,0,0-.718.072H50.6a.648.648,0,0,0-.359.072c-.215,0-.5.072-.79.072a12.181,12.181,0,0,0-1.58.287l-.862.215-.862.215c-.287.072-.575.215-.862.287h-.144c-.072,0-.072,0-.144.072-.072,0-.144.072-.215.072a1.021,1.021,0,0,1-.431.144,23.913,23.913,0,0,0-3.592,1.8,22.726,22.726,0,0,0-3.448,2.586,23.959,23.959,0,0,0-3.089,3.448,22.434,22.434,0,0,0-2.442,4.238,23.285,23.285,0,0,0-1.508,4.956L30.055,52.1a.648.648,0,0,1-.072.359v.287c0,.215-.072.431-.072.646v1.365h0v1.293a24,24,0,0,0,.862,5.459A23.432,23.432,0,0,0,33,66.683a63092.658,63092.658,0,0,1,.718,1.149l.431.575.072.144.072.144.215.287a26.771,26.771,0,0,0,1.868,2.155l.5.5.287.215a.992.992,0,0,0,.287.215l.5.5a3.984,3.984,0,0,0,.575.431c.359.287.79.575,1.149.862l.144.072.144.072.287.215.287.215c.072.072.215.144.287.215l.646.359c.072.072.215.144.287.215l.287.144c.215.144.431.215.646.359.215.072.431.215.646.287l.287.144c.072.072.215.072.359.144.215.072.431.215.646.287a.251.251,0,0,1,.144.072l.144.072.359.144.359.144c.144.072.215.072.359.144l.646.215.359.072.359.072a2.125,2.125,0,0,0,.718.144c.144,0,.215.072.359.072l.359.072.359.072c.144,0,.215.072.359.072.215,0,.431.072.718.072l.359.072h.359c.215,0,.431.072.718.072h2.8A2.7,2.7,0,0,0,55.2,78.1h.359l.359-.072c.215,0,.431-.072.646-.072h.287l.359-.072a23.226,23.226,0,0,0,5.1-1.437,27.512,27.512,0,0,0,4.525-2.442,26.334,26.334,0,0,0,3.735-3.161,21.171,21.171,0,0,0,2.8-3.592,20.545,20.545,0,0,0,1.939-3.735l.215-.431.215-.431c.072-.287.215-.646.287-.934a16.771,16.771,0,0,0,.5-1.8c.144-.575.215-1.149.359-1.724.072-.287.072-.575.144-.79,0-.144.072-.287.072-.431a.538.538,0,0,1,.072-.359c0-.287.072-.5.072-.79V53.754a16.747,16.747,0,0,0-.431-3.951A7.632,7.632,0,0,0,76.6,48.8a1.257,1.257,0,0,0,.072-.359" transform="translate(374.155 2717.859)"/>
      <path id="Path_673" data-name="Path 673" class="cls-2" d="M47.42,79.877a2.658,2.658,0,1,1,2.658-2.658,2.7,2.7,0,0,1-2.658,2.658m0-6.177a3.52,3.52,0,1,0,3.52,3.52,3.525,3.525,0,0,0-3.52-3.52" transform="translate(369.648 2705.24)"/>
      <path id="Path_674" data-name="Path 674" class="cls-2" d="M79.72,79.877a2.658,2.658,0,0,1,0-5.315,2.7,2.7,0,0,1,2.658,2.658,2.607,2.607,0,0,1-2.658,2.658m0-6.177a3.52,3.52,0,1,0,3.52,3.52,3.525,3.525,0,0,0-3.52-3.52" transform="translate(360.549 2705.24)"/>
      <path id="Path_675" data-name="Path 675" class="cls-2" d="M47.272,64.19a.567.567,0,0,1-.575.575H40.3a.525.525,0,0,1-.431-.646l1.652-3.592a1.744,1.744,0,0,1,1.508-1.006h3.592a.567.567,0,0,1,.575.575V64.19ZM73.849,68.5H50.217V59.665A1.364,1.364,0,0,0,48.852,58.3H42.531a2.432,2.432,0,0,0-2.3,1.508l-1.724,4.023a6.848,6.848,0,0,0-.575,2.873v3.879h-.359a.567.567,0,0,0-.575.575v1.293a.567.567,0,0,0,.575.575H41.6v-.144a3.951,3.951,0,1,1,7.9,0v.144H64.8v-.144a3.951,3.951,0,1,1,7.9,0v.144h1.149a1.1,1.1,0,0,0,1.077-1.077v-2.37A1.1,1.1,0,0,0,73.849,68.5" transform="translate(371.592 2709.577)"/>
      <path id="Path_676" data-name="Path 676" class="cls-2" d="M47.1,55.4a1.778,1.778,0,0,0-1.8,1.8h3.52A1.678,1.678,0,0,0,47.1,55.4" transform="translate(369.254 2710.394)"/>
      <path id="Path_677" data-name="Path 677" class="cls-2" d="M74.79,66.266a1.221,1.221,0,1,1,1.221-1.221,1.211,1.211,0,0,1-1.221,1.221Zm-3.951-5.818V58.293h1.724l2.227,2.155Zm-1.365,2.3h-.79a.431.431,0,0,1,0-.862h.79a.431.431,0,1,1,0,.862Zm-1.652-4.094a1.325,1.325,0,0,1,.862-.359h.862v2.155H65.955Zm-4.6,7.614a1.221,1.221,0,1,1,1.221-1.221,1.169,1.169,0,0,1-1.221,1.221m11.924-9.051A.512.512,0,0,0,74.718,57H68.685a2.494,2.494,0,0,0-1.8.718l-2.873,2.73H61.5a2.76,2.76,0,0,0-2.8,2.8v1.077a1.473,1.473,0,0,0,1.508,1.508h.646a2.521,2.521,0,0,0,3.161,1.58,2.475,2.475,0,0,0,1.58-1.58h6.752a2.521,2.521,0,0,0,3.161,1.58,2.475,2.475,0,0,0,1.58-1.58h.359a1.473,1.473,0,0,0,1.508-1.508V61.094a.652.652,0,0,0-.215-.5Z" transform="translate(365.479 2709.944)"/>
    </g>
  </g>
</svg>
