<svg xmlns="http://www.w3.org/2000/svg" viewBox="0 0 92.777 92.705">
  <defs>
    <style>
      .cls-1 {
        fill: #00baeb;
      }

      .cls-2 {
        fill: #fff;
      }
    </style>
  </defs>
  <g id="Group_943" data-name="Group 943" transform="translate(0)">
    <path id="Path_652" data-name="Path 652" class="cls-1" d="M252.209,215.193a49.866,49.866,0,0,0-4.642-11.1,45.993,45.993,0,0,0-16.684-16.684,44.3,44.3,0,0,0-11.1-4.643,46.407,46.407,0,0,0-24.663,0,49.866,49.866,0,0,0-11.1,4.643,47.569,47.569,0,0,0-9.358,7.254,45.978,45.978,0,0,0-7.254,9.43,46.675,46.675,0,0,0-4.643,11.1,46.009,46.009,0,0,0-1.668,12.332,43.277,43.277,0,0,0,1.668,12.332,44.946,44.946,0,0,0,4.643,11.026,47.12,47.12,0,0,0,16.611,16.611,44.3,44.3,0,0,0,11.1,4.643,46.408,46.408,0,0,0,24.663,0,44.3,44.3,0,0,0,11.1-4.643,46.549,46.549,0,0,0,16.684-16.611,44.946,44.946,0,0,0,4.642-11.026,46.408,46.408,0,0,0,0-24.663Z" transform="translate(-161.1 -181.1)"/>
    <path id="Path_663" data-name="Path 663" class="cls-2" d="M240.452,250.516h0V225.635a.992.992,0,0,0-1.016-1.016H210.131v-2.1a.992.992,0,0,0-1.016-1.016h-2.031a.992.992,0,0,0-1.016,1.016v2.1H202.8c-2.539.145-8.269,11.969-8.269,11.969L190.98,238.4a.972.972,0,0,0-.58.943v11.389h0a.992.992,0,0,0,1.016,1.016h4.207a5.1,5.1,0,0,0,9.575,0h21.689a5.1,5.1,0,0,0,9.575,0h2.829a.992.992,0,0,0,1.016-1.016C240.452,250.661,240.452,250.588,240.452,250.516Zm-39.969,2.394a3.119,3.119,0,1,1,3.119-3.119A3.191,3.191,0,0,1,200.483,252.909Zm6.529-16.9A.992.992,0,0,1,206,237.023H199.83a.992.992,0,0,1-1.016-1.016c0-4.788,4.788-7.4,7.254-7.4a.992.992,0,0,1,1.016,1.016v6.383Zm19.005,2.829a.727.727,0,0,1-.725-.725v-2.249h-2.249a.727.727,0,0,1-.725-.725v-3.119a.727.727,0,0,1,.725-.725h2.249v-2.249a.727.727,0,0,1,.725-.725h3.047a.727.727,0,0,1,.725.725v2.249h2.249a.727.727,0,0,1,.725.725v3.047a.727.727,0,0,1-.725.725h-2.249v2.249a.727.727,0,0,1-.725.725h-3.047Zm5.8,14.073a3.119,3.119,0,1,1,3.119-3.119A3.1,3.1,0,0,1,231.82,252.909Z" transform="translate(-169.146 -192.194)"/>
  </g>
</svg>
