<svg id="Group_946" data-name="Group 946" xmlns="http://www.w3.org/2000/svg" viewBox="0 0 92.777 92.705">
  <defs>
    <style>
      .cls-1 {
        fill: #00baeb;
      }

      .cls-2 {
        fill: #fff;
      }
    </style>
  </defs>
  <path id="Path_655" data-name="Path 655" class="cls-1" d="M91.109,396.293a49.864,49.864,0,0,0-4.643-11.1,45.992,45.992,0,0,0-16.684-16.684,44.3,44.3,0,0,0-11.1-4.643,46.408,46.408,0,0,0-24.663,0,49.864,49.864,0,0,0-11.1,4.643,47.566,47.566,0,0,0-9.358,7.254,45.979,45.979,0,0,0-7.254,9.43,46.674,46.674,0,0,0-4.643,11.1A46.009,46.009,0,0,0,0,408.625a43.277,43.277,0,0,0,1.668,12.332,44.946,44.946,0,0,0,4.643,11.026,47.12,47.12,0,0,0,16.611,16.611,44.3,44.3,0,0,0,11.1,4.643,46.408,46.408,0,0,0,24.663,0,44.3,44.3,0,0,0,11.1-4.643,46.548,46.548,0,0,0,16.684-16.611,44.946,44.946,0,0,0,4.643-11.026,46.408,46.408,0,0,0,0-24.663Z" transform="translate(0 -362.2)"/>
  <g id="Group_935" data-name="Group 935" transform="translate(17.917 32.425)">
    <path id="Path_664" data-name="Path 664" class="cls-2" d="M36.089,432.8a3.437,3.437,0,0,1-2.466-5.876,3.859,3.859,0,0,1,2.466-1.088,3.719,3.719,0,0,1,2.466.943,3.524,3.524,0,0,1,1.088,2.466v.145a3.532,3.532,0,0,1-3.554,3.409h0m31.482,0a3.483,3.483,0,0,1-3.482-3.482,3.53,3.53,0,0,1,3.482-3.482,3.437,3.437,0,0,1,3.482,3.482,3.483,3.483,0,0,1-3.482,3.482m-17.192-23.72-1.523,6.819h-8.7l4.715-6.819ZM30.648,430.62a5.616,5.616,0,0,0,6.819,4.135,5.5,5.5,0,0,0,4.207-4.5l.073-.435H61.913l.073.435a5.66,5.66,0,0,0,6.529,4.57,5.593,5.593,0,0,0,4.5-4.207l.073-.435h2.394a4.242,4.242,0,0,0,4.28-4.28v-8.922a1.345,1.345,0,0,0-.145-.508L75.26,409a4.322,4.322,0,0,0-3.7-2.1H39.425a1.088,1.088,0,1,0,0,2.176h2.756l-4.715,6.891h-7.4a5.356,5.356,0,0,0-5.368,5.368v4.642a4.288,4.288,0,0,0,4.28,4.28H30.5l.145.363" transform="translate(-24.7 -406.9)"/>
  </g>
</svg>
