<svg id="Group_940" data-name="Group 940" xmlns="http://www.w3.org/2000/svg" viewBox="0 0 92.777 92.705">
  <defs>
    <style>
      .cls-1 {
        fill: #00baeb;
      }

      .cls-2 {
        fill: #fff;
      }
    </style>
  </defs>
  <path id="Path_649" data-name="Path 649" class="cls-1" d="M413.309,34.093a49.864,49.864,0,0,0-4.643-11.1A45.993,45.993,0,0,0,391.983,6.311a44.3,44.3,0,0,0-11.1-4.643,46.408,46.408,0,0,0-24.663,0,49.865,49.865,0,0,0-11.1,4.643,47.567,47.567,0,0,0-9.358,7.254,45.978,45.978,0,0,0-7.254,9.43,46.677,46.677,0,0,0-4.643,11.1A46.01,46.01,0,0,0,322.2,46.425a43.279,43.279,0,0,0,1.668,12.332,44.948,44.948,0,0,0,4.643,11.026,47.12,47.12,0,0,0,16.611,16.611,44.3,44.3,0,0,0,11.1,4.643,46.407,46.407,0,0,0,24.663,0,44.3,44.3,0,0,0,11.1-4.643,48.023,48.023,0,0,0,9.43-7.254,47.565,47.565,0,0,0,7.254-9.358,44.944,44.944,0,0,0,4.643-11.026,46.408,46.408,0,0,0,0-24.663Z" transform="translate(-322.2 0)"/>
  <path id="Path_662" data-name="Path 662" class="cls-2" d="M397.736,65.368a20.183,20.183,0,1,0-32.788,6.383l.29.29a1.991,1.991,0,0,0-1.233,1.741v.943H395.27l-.363-1.233a2.983,2.983,0,0,0-1.451-1.668l.073-.073A21.234,21.234,0,0,0,397.736,65.368Zm-29.523-6.311a9.842,9.842,0,0,1,3.337-10.228l.508-.435.508.435a5.915,5.915,0,0,1,2.321,4.57,6.117,6.117,0,0,1-5.876,6.238h-.653Zm10.3,8.415-.145.653h-.653a9.862,9.862,0,0,1-8.7-6.311l-.218-.58.58-.363a6.262,6.262,0,0,1,3.409-1.016,5.948,5.948,0,0,1,3.554,1.161A5.781,5.781,0,0,1,378.513,67.472Zm-5.078-19.3-.218-.58.58-.363a9.92,9.92,0,0,1,10.736,0l.58.363-.218.58a6.023,6.023,0,0,1-5.658,3.99A6.213,6.213,0,0,1,373.435,48.176Zm15.814,13.565a9.862,9.862,0,0,1-8.7,6.311h-.653l-.145-.653a6.038,6.038,0,0,1,5.8-7.689,6.262,6.262,0,0,1,3.409,1.016l.58.363Zm.87-2.611-.145.653h-.653a6.062,6.062,0,0,1-5.586-4.207,6.188,6.188,0,0,1,2.1-6.674l.508-.435.508.435A9.9,9.9,0,0,1,390.119,59.13Z" transform="translate(-332.306 -10.238)"/>
</svg>
